<svg id="Layer_1" data-name="Layer 1" xmlns="http://www.w3.org/2000/svg" width="266.02" height="327.97" viewBox="0 0 266.02 327.97"><title>Maccabi Haifa FC logo - Brandlogos.net</title><g id="g27858"><g id="g27860"><path id="path27862" d="M384.31,515.75A100.9,100.9,0,0,0,485.24,414.83c0-55.85-45.23-101.25-100.92-101.25A101.35,101.35,0,0,0,283.06,414.83c0,55.82,45.41,100.92,101.25,100.92" transform="translate(-250.99 -220.01)" style="fill:#fff"/><path id="path27864" d="M384.31,548A133.27,133.27,0,0,0,515.49,437.66H482.68a101,101,0,0,1-98.36,78.1c-55.85,0-101.25-45.1-101.25-100.92A101,101,0,0,1,415.5,318.6l16-28.45A133.26,133.26,0,1,0,384.32,548" transform="translate(-250.99 -220.01)" style="fill:#007a45"/><path id="path27866" d="M314.57,370.76a82.59,82.59,0,0,0,0,88.07v-8.49a68.15,68.15,0,0,1-6.21-16.65l6.21-6.64v-3.5L307.76,431a70.57,70.57,0,0,1-1.83-16.19,78.79,78.79,0,0,1,8.64-35.73Zm0,88.08a82.81,82.81,0,0,0,15.89,18.29v-6.79h-1.37a78.38,78.38,0,0,1-14.52-20Zm15.89-77.79-6.21,3.19L316.83,375a82,82,0,0,1,13.63-17.1v-5.6a80.57,80.57,0,0,0-15.89,18.47v8.31a15.57,15.57,0,0,1,1-1.8l7.58,9.38L318.65,419l-4.08,4.54v3.5l5.14-5.75,10.74,3.17Zm0-23.16a80.78,80.78,0,0,1,26.63-16.62v-2.89l-.76-1.21a84.32,84.32,0,0,0-25.87,15.13Zm26.63,87-2.73.31-9.53-16.8,12.26-16.65V374.55l-2.73-3.93,2.73-3.17v-3.65l-5.3,6.06-21.33,11.2v43.43L342,428l10.59,18.62-2.73,23.77H330.46v6.79a78,78,0,0,0,26.63,15.43v-4.38a78.92,78.92,0,0,1-25.57-15.57h19.21l6.36,2.89Zm0-103.64c.46-.18,1.06-.33,1.52-.46l-1.52-2.43Zm0,26.15L368,354.86l-1.67-1.67-9.22,10.59Zm0,44.32,12.57-17.08h7.7v-2.28h-7.55l-12.72-17.86Zm27.24,85.52a82.07,82.07,0,0,0,56.58-22.7l-3.47-2.43A77.82,77.82,0,0,1,384.94,493l.15-6.21L409,470l22.25-3.65-.46-2.26-19.51,3.17-10.74-24.35.61-8.33h-2.28l-.61,6.66-41.15,3.62v30.58l25.57,11.78V493a75.06,75.06,0,0,1-25.57-4.84v4.38a80.73,80.73,0,0,0,27.24,4.71" transform="translate(-250.99 -220.01)" style="fill:#19191e"/></g><path id="path27868" d="M270.56,439.16v4.1l-3.47,2.41,3.47.15v3.35l-6.66-.46-1.19-4.1Zm0-11.35a6.3,6.3,0,0,1-1.83.46,7.4,7.4,0,0,1-5-1,4.45,4.45,0,0,1-1.37-2.73,3.5,3.5,0,0,1,.76-2.86,5.4,5.4,0,0,1,1.83-1.21l-.31-3.5a6.38,6.38,0,0,0-3.78,2.13,8.09,8.09,0,0,0,1.22,11.2,9.18,9.18,0,0,0,6.94,1.67,5.3,5.3,0,0,0,1.52-.31Zm0-11.33v3.47l-.31-3.47Zm0-8v3.62a14.72,14.72,0,0,1-2.71.15c-2.89-.31-5.14-1.19-6.66-2.86a7.38,7.38,0,0,1-1.83-5.75,7.58,7.58,0,0,1,2.43-5.3,6.09,6.09,0,0,1,4.08-1.67l-.15,3.65a4.84,4.84,0,0,0-2,.74,3.51,3.51,0,0,0-1.21,2.89,3.07,3.07,0,0,0,.91,2.71,7.08,7.08,0,0,0,4.71,1.83,6.42,6.42,0,0,0,2.41,0m0-28.6v3.5l-3.17.15,3.17,2.1v3.93L263,384.38l1-4.08Zm0-17.25v7.27l-2.71-1.21Zm-3,97.76,3-1.34v5.91l-.76.12Zm7.27-24.2V449.3l-4.23-.12v-3.35l3.62.15L273,441.75l-2.43,1.52v-4.1Zm0-18v11.66a8.37,8.37,0,0,1-4.23,1.83v-3.8a4.54,4.54,0,0,0,2.1-.89,3.83,3.83,0,0,0,1.52-3.5,4.53,4.53,0,0,0-1-2.41,5.74,5.74,0,0,0-2.58-1.06v-3.47a7,7,0,0,1,4.23,1.65m0-19.51v11.81a8.21,8.21,0,0,1-4.23,1.65v-3.62a4.32,4.32,0,0,0,1.67-.61,3.91,3.91,0,0,0,2.1-3.17,3.75,3.75,0,0,0-.76-2.58,3.86,3.86,0,0,0-2.26-1.34l.31-3.65a10.24,10.24,0,0,1,3.17,1.52m0-19.08v12.87l-4.23-2.89v-3.93l2.73,1.67,1-4.23-3.78.31v-3.5Zm0-21.79v3.65a3.47,3.47,0,0,0-1.06,1.65l-1.64,3.65,2.71,1.19v3.8l-4.23-1.82v-7.27l.76-1.49a5.64,5.64,0,0,1,3-3.35h.46m0,117.6h-.15l-2.26-4.71,2.41-1.8ZM270.57,459l4.23-2v3.62l-3.17,1.52,3.17-.76V464l-4.23.91Zm4.23-48.57V398.62a9.54,9.54,0,0,1,1.21,1.21,7.1,7.1,0,0,1,1.37,5.14,7.79,7.79,0,0,1-2.58,5.45m0,19.36V418.13l.31.31a6.92,6.92,0,0,1,2.13,4.84,6.74,6.74,0,0,1-1.67,5.75l-.76.76m6.51,17.1v2.86l-6.51-.46V436.15l2.73-2,1,3.77-3,2,1.83,6.21,3.62.15Zm0-67.82v3.65h-.15l-3.62.15L275.87,389l3.17,2-1,3.62-3.19-2.26V379.52Zm0-18.75v3.47h-.15a2.51,2.51,0,0,0-1.21,1.52l-1.8,4.08,3.17,1.37v3.77l-6.51-2.86v-3.8l.61.31,1.67-3.78a3.19,3.19,0,0,0,.46-1.83,2,2,0,0,0-1.06-1.34,2.1,2.1,0,0,0-1.67.15v-3.65a3.47,3.47,0,0,1,2.73.31,3.56,3.56,0,0,1,2,1.67,5.51,5.51,0,0,1,.31,1.67,5.4,5.4,0,0,1,1.52-1.06m0-11.81v4.23l-4.23-2.56,2-3Zm0,118.48-5.6,4.08,5.6-2.56v3.77l-6.51,3V468.8l6.51-5Zm-6.51-5.6V464l6.51-1.37V460Zm0-4.38,6.51-3v3.62l-6.51,3Zm6.51-104.25v-4.23l12.26,7.73-2,3Zm0,21.79v-3.77l.91.46,1.8-3.93a3,3,0,0,0,.33-2.13,2.6,2.6,0,0,0-1.52-1.52,1.76,1.76,0,0,0-1.52.15v-3.47c.31,0,.61-.15.91-.15a3.61,3.61,0,0,1,2.41.46,4.86,4.86,0,0,1,2.73,2.71,12.13,12.13,0,0,1,.31,2.13,10.38,10.38,0,0,1-1.21,3.47l-2.86,6.66Zm0,8.18v-3.65l.91-.15Zm0,67v-2.86l.76,3Zm26.33-114.37v3.47l-.76.76-5.6-5.14-4.54,4.84,5.6,5.3-2.41,2.56L287.37,335.5l2.43-2.71,4.84,4.54,4.54-5-4.84-4.38,2.41-2.58Zm0-19.23v6.36l-1.64-5ZM281.32,468.52v3.77l8.76-4.08-1.34-3Zm0-8.49,4.69-1,1.37,3.17L281.32,467v-3.17l2.13-1.67-2.13.46Zm0-6,1.83-.91,1.34,3-3.17,1.52Zm26.33-115.15v-3.47l1.67,1.65Zm5.3-21.64v4.08l-3-2,2.56,6.66.46-.31V334l-1.06.76-4.23-12.26v-6.36l1.52-1.21Zm8.92,5.6v3.93l-.31.15-3-2-5,4,1.37,3.47-2,1.67v-8.33l2.89-2.41-2.89-2v-4.08Zm0-16.19V313L319,308.27Zm0,20.12v-3.93l2.73,1.65Zm7.27-8.16-6.94-12.11-.33.15V313l5.78,10.13,1.49-.91Zm0-16v3.93l-1.49-3.19Zm0,3.93,5.75,12.26,3.32-1.52L335,310.69l7-3.17-1.37-2.73L333.82,308l-1.64-3.5,7.86-3.62L338.66,298l-9.53,4.56Zm0,15.72v-3.62l1.52,2.71Zm23.77-26.93v5.91l-1.83-2.73-.31,7.12,2.13-.61v3l-2.28.74-.15,3.65-3.62,1,1.21-18.14L352,294Zm62.32,12.57-1.06,3.32-3.47-1.06,1.06-3.32Zm-6.51-10.16-3.47-.43a5.08,5.08,0,0,0-.61-2,4.07,4.07,0,0,0-2.71-1.52,3.64,3.64,0,0,0-2.89.76c-1.19.91-1.83,2.41-2.13,4.54a9,9,0,0,0,.48,4.23,3.49,3.49,0,0,0,2.86,2.28,5,5,0,0,0,2.58-.61,3.33,3.33,0,0,0,1.49-2.13l3.65.46a7.55,7.55,0,0,1-3,4.25,7.78,7.78,0,0,1-10.29-2,10.2,10.2,0,0,1-1.37-7,9.94,9.94,0,0,1,3.35-6.49,6.83,6.83,0,0,1,5.6-1.37,7.63,7.63,0,0,1,5.3,2.71,6.25,6.25,0,0,1,1.19,4.23m-20.27,5.9-.15,3.5-3.62-.15.15-3.47Zm-13.76-3.47.61,7.27-3.5.31-1.49-17.1,12.09-1.06.31,3-8.61.76.46,3.8,7.4-.61.31,3ZM352.9,308v-3l2.1-.61-2.1-3.17v-5.91l9.68,13.63-3.78,1-2.13-3L352.89,308" transform="translate(-250.99 -220.01)" style="fill:#fff"/><g id="g27870"><g id="g27872"><path id="path27874" d="M389.92,396.35v22.1H376.29l13-22.1Zm0-50.09v23.31l-13.63-23.31Zm0,23.31V346.25h13.46l-3.93,23h-.15l-5.91,6.06Zm41.45-9.68L422,346.25H409.43l-3.93,23h11l8.92,13.48v13.61H389.91v22.1h28.73v.15h12.72Zm0-13.63v3.19l-2.13-3.19Zm0-21.61v15.72h-9.22Zm0,99.86h-9.22l9.22,15.72Zm0-5.91h9.22V396.5h-2.86V369.11l-6.36-9.22Zm18.78-64.92v58.56l-3.65,3.5V371.54l-15.13-22.1v-3.19h13.15Zm0-49.18v39.35l-2.73-3.5h-16V324.62l15.28-26.05Zm-3.5,161.6,3.5-5.75V420.56l-4,3.77v.15H431.37V440.2Zm3.5-122.26,7.7,10.29,13.63-13.18-21.33-36.48Zm0,68.39V353.66l5.42,7.27h3.65l15.28-14.7H517l-21.18,36.19,21.18,36H476.92v-22.1H489v-16l-6.66-8.92-.12.15v-.15H455v36Zm0,48.12,20.73-35.55V377h-10v32.84l-10.74,10.74v39.78" transform="translate(-250.99 -220.01)" style="fill:#19191e"/><path id="path27876" d="M403.83,388.62a5.68,5.68,0,0,0,0-11.35,5.68,5.68,0,1,0,0,11.35" transform="translate(-250.99 -220.01)" style="fill:#19191e"/></g><g id="g27878"><path id="path27880" d="M380.11,539.78h5.45l-.31-10h-5.14v10" transform="translate(-250.99 -220.01)" style="fill:#fff"/><path id="path27882" d="M390.54,539.68l5.3-.31-.91-12c-.46-4.08-1.83-5-5.6-5h-9.22v4.84h9.53l.91,12.42" transform="translate(-250.99 -220.01)" style="fill:#fff"/><path id="path27884" d="M444.1,524.37l4.54-2.41-5.91-10.43c-2-3.35-3.78-3.65-7.27-2l-8.31,3.78,7.12,16,5-2.26-5.45-11.66,3.78-1.67.61.31,5.91,10.29" transform="translate(-250.99 -220.01)" style="fill:#fff"/><path id="path27886" d="M422.14,525.72l4.54-1.83L423.21,515l-4.56,1.83,3.5,8.92" transform="translate(-250.99 -220.01)" style="fill:#fff"/><path id="path27888" d="M316.7,520.27l6.21,3.5c2,1.19,5.75.43,7.27-1.37a19,19,0,0,0,2.56-4.08c1.83-4.41,1.21-7.27-1.34-8.79l-6.06-3.93-2.43,3.93,4.23,2.43c2.89,1.83-1.34,8.76-3.62,7.4l-4.69-2.86-2.13,3.78" transform="translate(-250.99 -220.01)" style="fill:#fff"/><path id="path27890" d="M309.9,515.75a2.79,2.79,0,0,0,3.78-.76,2.87,2.87,0,0,0-1.37-3.62c-1.37-.61-3.17-.46-3.78.76a2.57,2.57,0,0,0,1.37,3.62" transform="translate(-250.99 -220.01)" style="fill:#fff"/><path id="path27892" d="M335.74,530.23a2.67,2.67,0,0,0,3.62-1.34,2.74,2.74,0,0,0-1.8-3.5,2.93,2.93,0,0,0-3.65,1.37,2.82,2.82,0,0,0,1.83,3.47" transform="translate(-250.99 -220.01)" style="fill:#fff"/><path id="path27894" d="M484.36,489.39l4-6.06c1.19-1.8.74-5.75-.91-7.4a24,24,0,0,0-4-2.89c-4.39-2-7.4-1.67-9.22.76l-4.39,5.91,3.93,2.71,2.89-4.08c2-2.71,8.76,1.82,7.12,4.08l-3,4.56,3.62,2.41" transform="translate(-250.99 -220.01)" style="fill:#fff"/><path id="path27896" d="M471.34,504.39l9.07-10.13-3.17-2.86-2.13,2.41-.15-2c-.15-1.21,0-1.82-1.06-2.58L471.19,487c-3-2.58-4.69-2.13-7.43.43l-5,5,3.47,3.35,4.56-4.54a1.09,1.09,0,0,1,1.34-.15l4.1,3.47v2.28L468,501.37l3.35,3" transform="translate(-250.99 -220.01)" style="fill:#fff"/><path id="path27898" d="M458.31,505.43l3.78-3.17L455.76,495l-3.8,3.17,6.36,7.27" transform="translate(-250.99 -220.01)" style="fill:#fff"/><path id="path27900" d="M489.5,462.93c-2.26-1.82-3-3.5-2-5.6.61-1.21,2.56-.91,3.32-.46l3.19,1.52a2.6,2.6,0,0,1,.58,4.23l2.89,1.21c3.47-1.82,3.62-7.43.46-9.53a20.33,20.33,0,0,0-6.21-2.73c-2.73-.61-6.06-1.06-7.73,2.73a6.2,6.2,0,0,0,.91,7.09,24.73,24.73,0,0,0-3.32-.31l-2,4.54a30.55,30.55,0,0,1,8.33,1.83l7.55,3.93,1.67-4.23-7.73-4.23" transform="translate(-250.99 -220.01)" style="fill:#fff"/><path id="path27902" d="M348.2,525.56l-2.73,8,4.23,1.21,3.35-8.33c1.49-2.41,3-3.32,5.14-2.71,1.19.43,1.37,2.41,1.06,3.32l-1.06,3.32a2.72,2.72,0,0,1-4.26,1.06l-.74,3c2.26,3.35,7.7,2.89,9.22-.58a39.74,39.74,0,0,0,2.13-6.81c.46-2.56.28-6.06-3.8-7.27a6.45,6.45,0,0,0-6.94,2,24.39,24.39,0,0,0-.15-3.32L349,517.1c.12,1.82.12,6.21-.76,8.46" transform="translate(-250.99 -220.01)" style="fill:#fff"/><path id="path27904" d="M412.34,536.15a7.15,7.15,0,0,0,4.69-7.86l-.61-3a7.08,7.08,0,0,0-8.18-5.91l-3,.46c-3.78.76-5.6,4.25-5,8l.46,3.17a.47.47,0,0,1,.15.31l5.3-1.52a1.13,1.13,0,0,0-.15-.58l-.15-1.37c-.76-4.54,4.84-4.84,5.6-.91l.15,1.37a2.59,2.59,0,0,1-.76,2.86c-.76.76-2.28,1.06-3.35,1.37L401.75,534l1.34,4.23c3-.76,6.36-1.06,9.25-2.13" transform="translate(-250.99 -220.01)" style="fill:#fff"/></g></g><path id="path27906" d="M382.6,220l6.34,20.09h20.67l-16.75,12.21L399.2,271,382.9,259.44l-16.29,11.4L372.46,252l-15.84-11.86H377" transform="translate(-250.99 -220.01)" style="fill:#fdca00"/></g></svg>