<?xml version="1.0" encoding="UTF-8"?><svg id="Layer_1" xmlns="http://www.w3.org/2000/svg" viewBox="0 0 361.39 388.76"><defs><style>.cls-1{fill:#fd0036;}</style></defs><path class="cls-1" d="M314.12,330.42c-68.08,73.79-184.91,78.14-256.95,9.83C-19.51,267.54-10.83,159.74,34.99,102.79c3.81,7.48,4.14,14.15.08,22.19-30.42,60.14-27.19,119.06,10.87,174.43,27.04,39.34,65.85,61.96,113.58,68.01,48.91,6.21,92.66-6.89,129.73-38.92,31.59-27.31,50.66-62.21,55.75-104.24,4.5-37.1-2.86-71.56-20.56-104.35-2.27-4.2.14-10.93,1.17-16.44,41.92,47.72,57.29,152.41-11.48,226.95Z"/><path class="cls-1" d="M174.73,198.14c-2.43-.45-4.7-.96-6.98-1.3-40.09-5.97-65.67-35.31-64.68-73.74,1-38.39.23-76.83.23-115.25-.01-2.5,0-5,0-7.75h-60.65c0,29.26-1.45,58.14.42,86.8,1.76,26.82,13.91,49.62,36.95,65.02,6.53,4.36,11.04,9.8,14.72,16.39,6.18,11.07,14.76,20.13,25.98,25.8,10.2,5.17,21.18,8.83,31.92,12.88,2.9,1.1,5.41,1.48,5.34,5.65-.35,16.85.27,33.73-.62,50.54-1.33,25.46-11.51,46.77-33.44,60.91-7.13,4.61-15.67,7.06-23.66,10.53,6.2,3.61,11.78,8.47,20.68,5.92,26.72-7.69,41.69-26.56,49.43-51.7,3.02-9.8,3.84-20.52,4.17-30.87.62-19.79.18-39.61.18-59.83ZM84.86,146.36c-11.55-8.49-18.57-19.89-22.02-33.32-1.89-7.34-2.91-15.09-3-22.67-.36-27.05-.14-54.11-.14-81.83h25.16v137.82Z"/><path class="cls-1" d="M319.39,2.37c0-.77-.39-1.55-.6-2.37h-60.36v7.85c0,38.21.06,76.42-.08,114.64-.03,6.57-.24,13.31-1.6,19.71-4.93,23.26-19.26,39.16-40.83,48.27-9.08,3.82-18.99,5.75-28.85,8.64,0,20.85-.54,41.98.23,63.07.37,10.29,1.85,20.95,5.16,30.64,7.83,22.92,22.54,39.96,46.55,47.39,9.26,2.87,15.21,1.04,22.3-6.43-35.67-8.92-53.57-32.96-56.74-68.42-1.49-16.53-.5-33.26-1.15-49.89-.22-5.62,1.73-7.44,7.03-8.74,26.69-6.58,48.17-20.32,60.8-45.77,1.05-2.12,3.08-4.07,5.12-5.34,26.15-16.12,40.34-40.09,42.28-70.05,1.78-27.63.63-55.46.74-83.2ZM302.24,89.17c-.15,18.8-5.06,36.3-18.16,50.61-2.22,2.41-4.94,4.36-7.54,6.63V8.57h24.56c.15,1.57.42,2.99.44,4.43.3,25.39.92,50.79.71,76.17Z"/><path class="cls-1" d="M245.96,50.62c-43.47-16.87-86.55-16.94-130.06,0-.9-10.82-.89-10.77,8.66-13.81,40.66-13,80.95-11.75,121.13,2.85.1,1.9.22,3.58.26,5.26.04,1.69.01,3.37.01,5.7Z"/><path d="M205.02,133.7c-.94,5.81-1.87,11.51-2.79,17.2-.82,5.07-1.67,10.14-2.46,15.22-.16,1.06-.11,2.15-.12,3.23-.02,2.16-.02,4.31-.02,6.47,0,.22,0,.44,0,.71h-4.87v-.64c0-1.83-.06-3.66.01-5.49.12-2.89-.32-5.71-.79-8.54-.78-4.69-1.52-9.38-2.27-14.08-.68-4.25-1.36-8.5-2.04-12.75-.07-.43-.11-.87-.17-1.31h4.76c.97,7.91,1.93,15.77,2.9,23.62.04.03.09.06.13.08.1-.2.26-.4.28-.61.14-1.44.2-2.88.37-4.31.4-3.43.85-6.86,1.28-10.28.34-2.66.7-5.32,1.01-7.99.05-.42.19-.54.6-.54,1.36.02,2.72,0,4.19,0Z"/><polygon points="185.91 172.17 185.91 176.51 174.63 176.51 174.63 133.75 185.56 133.75 185.56 138.06 179.29 138.06 179.29 150.78 184.15 150.78 184.15 154.81 179.34 154.81 179.34 172.17 185.91 172.17"/><path d="M171.11,176.18c-1.43-6.56-2.86-13.12-4.31-19.68-.08-.36-.02-.55.33-.71,1.58-.7,2.37-2,2.63-3.64.12-.78.16-1.58.17-2.37.02-2.81.02-5.61,0-8.42,0-.93-.03-1.87-.13-2.8-.27-2.55-1.58-4.03-4.07-4.61-.71-.16-1.45-.24-2.18-.25-2.16-.03-4.31-.01-6.47,0-.22,0-.43.02-.71.04v42.77h4.7v-21.92c.08-.02.15-.03.23-.05.15.38.37.74.45,1.13.47,2.14.9,4.29,1.35,6.44.95,4.62,1.91,9.23,2.84,13.85.1.51.32.64.81.63,1.24-.03,2.48,0,3.73-.01.22,0,.43-.02.66-.03-.01-.17,0-.27-.03-.37ZM165.3,150.62c0,.24-.03.49-.07.73-.21,1.22-.62,1.65-1.87,1.77-.74.07-1.5.01-2.33.01v-15.11c1.06.07,2.12.07,3.14.24.34.06.71.52.89.88.19.38.23.86.23,1.3.02,3.39,0,6.79,0,10.18Z"/><polygon points="196.86 126.62 196.86 128.06 189.51 128.06 189.51 121 191.2 121 191.2 126.62 196.86 126.62"/><path d="M185.26,126.62v1.43h-7.64v-7.05h7.61v1.39h-5.74c-.37,1.21-.27,1.36.84,1.36,1.34,0,2.68,0,4.1,0v1.45c-1.33,0-2.67-.02-4,0-1.2.02-1.21.04-1.14,1.4h5.96Z"/><path d="M171.94,121.31c-2.07-.32-4.19-.34-6.29-.49v7.41c2.12-.12,4.09-.13,6.03-.38,1.46-.19,2.3-1.49,2.38-3.17.07-1.6-.75-3.16-2.12-3.36ZM172.31,124.6c-.05.93-.46,1.69-1.42,1.84-1.12.18-2.27.18-3.51.27v-4.34c1.21.09,2.38.1,3.53.3.94.16,1.45.99,1.41,1.94Z"/><path d="M200.44,71.75c-.02-1.26-.34-2.6-.85-3.75-1-2.25-3.08-3.04-5.37-3.13-3.22-.13-6.45-.1-9.67-.13-.15,0-.31.06-.46.09v50.61h5.36v-19.21c.88,0,1.63.03,2.36,0,1.01-.05,2.02-.09,3.01-.25,2.47-.42,4.4-1.62,5.12-4.15.32-1.1.51-2.27.52-3.4.05-5.55.07-11.11-.03-16.66ZM195.04,87.76c0,2.57-.61,3.19-3.16,3.3-.55.02-1.11-.03-1.66.02-.62.06-.75-.21-.75-.78.02-5.19.01-10.38.01-15.57v-4.93c1.47.12,2.86.19,4.23.36.6.07.96.56,1.08,1.13.13.58.23,1.18.23,1.78.02,4.9.02,9.8,0,14.71Z"/><path d="M218.12,64.77h-10.16c-1.38,16.92-2.76,33.78-4.14,50.64h5.45c.27-3.33.53-6.6.8-9.87h5.67c.27,3.32.53,6.6.8,9.88h5.85c-1.42-16.91-2.83-33.76-4.25-50.65ZM210.42,100.31c.78-10.54,1.56-21.03,2.33-31.53.09,0,.19-.02.28-.03.07.35.17.69.19,1.04.12,2.28.17,4.57.33,6.84.28,4.05.63,8.1.95,12.15.3,3.81.59,7.62.89,11.52h-4.97Z"/><path d="M178.13,73.91c-.01-1.44-.07-2.9-.34-4.3-.52-2.63-2.04-4.43-4.76-5.12-2.22-.56-4.45-.47-6.66-.13-2.43.38-4.21,1.78-4.87,4.17-.44,1.57-.65,3.26-.66,4.89-.05,11.02-.03,22.04-.02,33.06,0,1.01.05,2.02.14,3.02.34,3.75,2.73,6.21,6.29,6.41,1.63.09,3.27.06,4.9-.04,1.35-.08,2.57-.62,3.58-1.54,1.75-1.59,2.32-3.69,2.34-5.93.05-6.09.02-12.17.02-18.26h.04c0-5.41.02-10.83-.02-16.24ZM172.62,106.83c0,.5-.02,1.01-.07,1.51-.21,1.99-1.29,2.91-3.28,2.81-1.76-.09-2.82-1.09-2.85-2.87-.06-3.22-.04-6.44-.05-9.66,0-2.84,0-5.68,0-8.51,0-5.82,0-11.64,0-17.45,0-.55.06-1.11.19-1.64.31-1.21.99-1.76,2.23-1.9,2.55-.3,3.77.75,3.82,3.32,0,.12,0,.24,0,.36,0,11.35,0,22.69,0,34.04Z"/><path d="M155.7,107.38c-.02,1.29-.17,2.6-.48,3.85-.63,2.6-2.42,4.24-5,4.57-2.12.27-4.34.2-6.46-.1-2.73-.39-4.2-2.32-4.77-4.95-.11-.49-.2-.98-.3-1.47v-38.25c.14-.65.25-1.31.41-1.96.69-2.81,2.56-4.4,5.34-4.75,1.77-.22,3.62-.22,5.39.02,3.43.47,5.36,2.64,5.73,6.23.17,1.65.15,3.31.16,4.97.02,2.5,0,5-.02,7.5,0,.05-.02.09-.04.21h-5.39v-10.13c0-.29,0-.58-.01-.87-.13-2.85-1.89-3.65-4.42-2.94-1.28.36-1.52,1.56-1.66,2.71-.04.28-.02.58-.02.86,0,11.52,0,23.04,0,34.56,0,.48.05.96.14,1.43.29,1.55,1.21,2.29,2.84,2.3,1.68.02,2.65-.7,2.96-2.25.11-.56.17-1.14.17-1.72.02-3.46.04-6.93.02-10.39,0-.58.13-.8.75-.78,1.53.04,3.07.01,4.68.01v.79c0,3.51.04,7.02-.02,10.53Z"/></svg>