<svg id="Layer_1" data-name="Layer 1" xmlns="http://www.w3.org/2000/svg" width="182.8" height="355.77" viewBox="0 0 182.8 355.77"><title>Belgium national football team logo - Brandlogos.net</title><polygon points="88.88 0 88.88 6.96 81.92 6.96 81.92 11.99 88.88 11.99 88.88 18.97 93.91 18.97 93.91 11.99 100.88 11.99 100.88 6.96 93.91 6.96 93.91 0 88.88 0" style="fill:#b59c56"/><rect x="60.11" y="62.75" width="62.57" height="5.03" style="fill:#b59c56"/><rect x="60.11" y="52.64" width="62.57" height="5.03" style="fill:#b59c56"/><rect x="88.88" y="23.99" width="5.03" height="23.59" style="fill:#b59c56"/><path d="M355.44,252c-1.89-3.53-3.84-7.19-3.84-10a7.27,7.27,0,0,1,9.42-6.44,17.1,17.1,0,0,1,2.41-4.47A12.25,12.25,0,0,0,346.58,242c0,3.86,2,7.86,4.07,11.73h5.73l-.94-1.72" transform="translate(-292.6 -206.12)" style="fill:#b59c56"/><path d="M373.46,253.7c-.16-.41-.33-.83-.52-1.25-1.36-3.33-3.06-7.45-3.06-10.25,0-4.19,2.29-6.31,4.32-6.88a4,4,0,0,1,2.29,0V230.2a9.17,9.17,0,0,0-3.57.26c-4.87,1.34-8,5.94-8,11.71,0,3.59,1.63,7.75,3.18,11.47Z" transform="translate(-292.6 -206.12)" style="fill:#b59c56"/><path d="M409.77,230.2a12.17,12.17,0,0,0-5.19.88,17.13,17.13,0,0,1,2.42,4.47,7.26,7.26,0,0,1,9.4,6.44c0,2.82-1.95,6.48-3.83,10-.31.57-.61,1.15-.91,1.72h5.73c2.06-3.88,4.08-7.87,4.08-11.73a12,12,0,0,0-11.71-11.8" transform="translate(-292.6 -206.12)" style="fill:#b59c56"/><path d="M391.56,230.2v5.16a4,4,0,0,1,2.24,0c2,.57,4.31,2.65,4.31,6.83,0,2.8-1.7,6.88-3.06,10.25l-.52,1.25H400c1.54-3.75,3.17-7.91,3.17-11.47,0-5.73-3.15-10.32-8-11.71a9.17,9.17,0,0,0-3.56-.32" transform="translate(-292.6 -206.12)" style="fill:#b59c56"/><path d="M384,526.53" transform="translate(-292.6 -206.12)" style="fill:#fff"/><path d="M384,285.38" transform="translate(-292.6 -206.12)" style="fill:#fff"/><path d="M459,528.2c-8.35,0-16.39,6.08-16.39,6.08H475.4s-8-6.08-16.39-6.08" transform="translate(-292.6 -206.12)" style="fill:#b59c56"/><path d="M440.32,537.89c-8.36,0-16.39,6.08-16.39,6.08h32.78s-8-6.08-16.39-6.08" transform="translate(-292.6 -206.12)" style="fill:#b59c56"/><path d="M427.92,549.13c-7.48-3.73-17.37-1.87-17.37-1.87l29.33,14.62s-4.47-9-12-12.75" transform="translate(-292.6 -206.12)" style="fill:#b59c56"/><path d="M403.68,549.13c-7.48-3.73-17.39-1.87-17.39-1.87l29.33,14.62s-4.47-9-11.95-12.75" transform="translate(-292.6 -206.12)" style="fill:#b59c56"/><path d="M465.85,516.14c5.32-6.44,5.73-16.51,5.73-16.51l-20.85,25.3s9.81-2.29,15.11-8.78" transform="translate(-292.6 -206.12)" style="fill:#b59c56"/><path d="M445.71,524.92c4.59-7,4-17,4-17L431.6,535.24s9.5-3.34,14.11-10.32" transform="translate(-292.6 -206.12)" style="fill:#b59c56"/><path d="M417.28,542.33c7.48-3.73,11.95-12.75,11.95-12.75l-29.33,14.63s9.91,1.86,17.39-1.88" transform="translate(-292.6 -206.12)" style="fill:#b59c56"/><path d="M309,528.2c8.36,0,16.39,6.08,16.39,6.08H292.6s8-6.08,16.39-6.08" transform="translate(-292.6 -206.12)" style="fill:#b59c56"/><path d="M327.68,537.89c8.36,0,16.39,6.08,16.39,6.08H311.29s8-6.08,16.39-6.08" transform="translate(-292.6 -206.12)" style="fill:#b59c56"/><path d="M340,549.13c7.48-3.73,17.39-1.87,17.39-1.87l-29.33,14.62s4.47-9,11.95-12.75" transform="translate(-292.6 -206.12)" style="fill:#b59c56"/><path d="M364.33,549.13c7.48-3.73,17.37-1.87,17.37-1.87l-29.33,14.62s4.48-9,12-12.75" transform="translate(-292.6 -206.12)" style="fill:#b59c56"/><path d="M302.15,516.14c-5.32-6.44-5.73-16.51-5.73-16.51l20.85,25.3s-9.76-2.29-15.11-8.78" transform="translate(-292.6 -206.12)" style="fill:#b59c56"/><path d="M322.29,524.92c-4.59-7-4-17-4-17l18.1,27.34s-9.51-3.34-14.12-10.32" transform="translate(-292.6 -206.12)" style="fill:#b59c56"/><path d="M350.73,542.34c-7.49-3.74-12-12.76-12-12.76l29.33,14.63s-9.9,1.86-17.37-1.87" transform="translate(-292.6 -206.12)" style="fill:#b59c56"/><path d="M389.08,289" transform="translate(-292.6 -206.12)" style="fill:none;stroke:#1d1d1b;stroke-miterlimit:10;stroke-width:4.389999866485596px"/><path d="M389.08,351.65" transform="translate(-292.6 -206.12)" style="fill:none;stroke:#1d1d1b;stroke-miterlimit:10;stroke-width:4.389999866485596px"/><path d="M326.42,504.58a86.41,86.41,0,0,0,28.84,17V286.53H326.52Z" transform="translate(-292.6 -206.12)" style="fill:#ffd500"/><path d="M355.26,521.62c11.78,4.91,28.81,4.91,28.81,4.91l-.07-240H355.26Z" transform="translate(-292.6 -206.12)" style="fill:#e30613"/><path d="M326.52,286.49l-.1,218.09a86.45,86.45,0,0,1-29-64.7V286.49Z" transform="translate(-292.6 -206.12)" style="fill:#1d1d1b"/><path d="M384.07,353.23a86.65,86.65,0,1,1,0,173.3Z" transform="translate(-292.6 -206.12)" style="fill:#1d1d1b"/><path d="M294.89,284V439.88a89.17,89.17,0,1,0,178.35,0V284Zm86.59,240a83.9,83.9,0,0,1-23.7-4.16V289h23.7ZM329,289h23.7V517.94a84.42,84.42,0,0,1-23.7-14.5ZM299.93,439.88V289H324V498.71A83.85,83.85,0,0,1,299.93,439.88Zm168.27,0a84.22,84.22,0,0,1-81.67,84.07V355.81A84.21,84.21,0,0,1,468.2,439.88Z" transform="translate(-292.6 -206.12)" style="fill:#b59c56"/><path d="M402.61,335.94H403l1.34,5.49h-3.14ZM396.69,348h2.84l1-4H405l1,4h3.19V346.1l-3.69-13.18H400.4l-3.69,13.18Zm-10.07,0h3.52v-6.31h5.08v-2.59h-5.08v-3.59h5.33V333h-8.84Z" transform="translate(-292.6 -206.12)" style="fill:#1d1d1b"/><path d="M456.17,327.9h3.28v-9.17h.39l4.35,9.17h4V312.77h-3.29v9.17h-.41l-4.31-9.17h-4Zm-8.75-12.1h.41l1.34,5.45H446Zm-6,12.1h2.86l1-4h4.45l1,4H454V326l-3.7-13.19h-5.14L441.45,326Zm-5.73,0h3.52V312.77h-3.52Zm-8-5.89h2.17v2.29a2.29,2.29,0,0,1-.79.83,2.66,2.66,0,0,1-1.48.37,2.59,2.59,0,0,1-1.49-.39,2.14,2.14,0,0,1-.8-.88v-7.79a2.29,2.29,0,0,1,.79-.91,2.86,2.86,0,0,1,2.88,0,2,2,0,0,1,.78.91V318h3.44v-2.48a6.63,6.63,0,0,0-.65-1,5,5,0,0,0-1.15-1,6.94,6.94,0,0,0-1.63-.77,7.19,7.19,0,0,0-2.22-.31,7.09,7.09,0,0,0-2.29.32,6.88,6.88,0,0,0-1.67.81,4.91,4.91,0,0,0-1.15,1.07,6.66,6.66,0,0,0-.68,1.15V325a6.66,6.66,0,0,0,.68,1.15,4.91,4.91,0,0,0,1.15,1.07,6.5,6.5,0,0,0,1.67.81,7.09,7.09,0,0,0,2.29.32,7.19,7.19,0,0,0,2.22-.31,6.15,6.15,0,0,0,1.63-.78,5.28,5.28,0,0,0,1.15-1,8,8,0,0,0,.65-1v-5.73h-5.45Zm-15.83,5.89h8.21v-2.61h-4.77V312.77h-3.44Zm-11.71,0h9.17v-2.61H403.6v-3.8h5.16v-2.61H403.6v-3.44h5.55v-2.67h-9Zm-10-2.52v-4h2.22a2.42,2.42,0,0,1,1.15.28,1.73,1.73,0,0,1,.76.7v2a1.89,1.89,0,0,1-.7.75,2.47,2.47,0,0,1-1.3.3Zm0-6.42v-3.62h2.13a2.29,2.29,0,0,1,1.15.28,1.67,1.67,0,0,1,.71.76V318a2.29,2.29,0,0,1-.73.71,1.93,1.93,0,0,1-1,.28Zm-3.51,8.94h6.42a5.1,5.1,0,0,0,1.61-.23,4.92,4.92,0,0,0,1.26-.6,4.59,4.59,0,0,0,1-.83,5.57,5.57,0,0,0,.67-.92v-3.67a3.53,3.53,0,0,0-.8-.92,7.37,7.37,0,0,0-1-.64,5,5,0,0,0,1-.71,4.41,4.41,0,0,0,.69-.83v-3.21a5.73,5.73,0,0,0-.65-.93,5,5,0,0,0-.94-.83,5.08,5.08,0,0,0-1.23-.6,4.75,4.75,0,0,0-1.56-.24h-6.42Z" transform="translate(-292.6 -206.12)" style="fill:#1d1d1b"/><path d="M439.15,307.77h8.2v-2.61h-4.68V292.64h-3.52Zm-8.8-12.1h.41l1.33,5.45H429Zm-5.87,12.1h2.84l1-4h4.45l1,4H437v-1.95l-3.69-13.18h-5.11l-3.69,13.18Zm-7.55,0h3.52v-5.94l4-7.24v-1.95h-2.9l-2.49,5.22h-.41l-2.41-5.18h-3.18v1.95l3.8,6.88Zm-17-3a6.08,6.08,0,0,0,.69,1.15,4.84,4.84,0,0,0,1.15,1.07,6.88,6.88,0,0,0,1.67.81,8,8,0,0,0,4.5,0,6.7,6.7,0,0,0,1.67-.81,4.91,4.91,0,0,0,1.15-1.07,5.4,5.4,0,0,0,.68-1.15v-9.17a5.4,5.4,0,0,0-.68-1.15,4.91,4.91,0,0,0-1.15-1.07,6.7,6.7,0,0,0-1.67-.81,8,8,0,0,0-4.5,0,6.88,6.88,0,0,0-1.67.81,4.84,4.84,0,0,0-1.15,1.07,6.08,6.08,0,0,0-.69,1.15Zm3.52-8.49a2.29,2.29,0,0,1,.79-.92,2.86,2.86,0,0,1,2.88,0,2.18,2.18,0,0,1,.78.92v7.81a2.29,2.29,0,0,1-.78.89,2.86,2.86,0,0,1-2.88,0,2.41,2.41,0,0,1-.79-.89Zm-13.33,3.44v-4.44h2.1a2.47,2.47,0,0,1,1.15.28,1.74,1.74,0,0,1,.78.77v2.43a1.72,1.72,0,0,1-.77.77,2.44,2.44,0,0,1-1.15.28Zm4.82,8h2.74v-1.95l-2.61-4a4.78,4.78,0,0,0,1.43-.88,5.73,5.73,0,0,0,1-1.31v-4.38a4.77,4.77,0,0,0-1.89-1.94,5.3,5.3,0,0,0-2.65-.68h-6.38v15.17h3.52v-5.55h1.47Z" transform="translate(-292.6 -206.12)" style="fill:#1d1d1b"/><path d="M414.16,341.52a1.41,1.41,0,0,0,.55.61,2,2,0,0,0,1.15.3,1.92,1.92,0,0,0,1.15-.3,1.41,1.41,0,0,0,.55-.61v-1.64a1.55,1.55,0,0,0-.55-.61,2,2,0,0,0-1.15-.3,2.06,2.06,0,0,0-1.15.3,1.55,1.55,0,0,0-.55.61Z" transform="translate(-292.6 -206.12)" style="fill:#1d1d1b"/><path d="M457.9,345.89a5.08,5.08,0,0,0,.6.73,4.75,4.75,0,0,0,1,.81,6.3,6.3,0,0,0,1.5.67,6.78,6.78,0,0,0,2,.26,6.71,6.71,0,0,0,2-.28,7.14,7.14,0,0,0,1.51-.67,4.59,4.59,0,0,0,1.59-1.54v-5.3a4.31,4.31,0,0,0-.55-.83,3.69,3.69,0,0,0-.87-.75,4.59,4.59,0,0,0-1.15-.53,4.81,4.81,0,0,0-1.46-.21,5.33,5.33,0,0,0-1.69.24,4.38,4.38,0,0,0-1.25.69V335.7h6.88V333H458v8.59h3.14a2.18,2.18,0,0,1,.67-.5,2.39,2.39,0,0,1,1.15-.28,2.5,2.5,0,0,1,1.27.32,1.54,1.54,0,0,1,.71.72v3a1.53,1.53,0,0,1-.71.75,2.49,2.49,0,0,1-1.27.31,2.4,2.4,0,0,1-1.28-.32,1.77,1.77,0,0,1-.72-.73v-1.15h-3.13Z" transform="translate(-292.6 -206.12)" style="fill:#1d1d1b"/><path d="M454.89,334.56a5.37,5.37,0,0,0-1.15-.93,6.73,6.73,0,0,0-1.58-.72,6.62,6.62,0,0,0-2.05-.3,6.53,6.53,0,0,0-2,.29,7,7,0,0,0-1.53.68,4.84,4.84,0,0,0-1,.83,4.49,4.49,0,0,0-.56.7v5.29a3.15,3.15,0,0,0,.55.85,3.94,3.94,0,0,0,.87.73,5.15,5.15,0,0,0,1.15.53,5,5,0,0,0,1.49.21,5.28,5.28,0,0,0,1.72-.25,4.42,4.42,0,0,0,1.31-.68v3a1.66,1.66,0,0,1-.71.73,2.75,2.75,0,0,1-2.58,0,1.66,1.66,0,0,1-.71-.73v-1H445v2.18a5.73,5.73,0,0,0,.58.72,5.21,5.21,0,0,0,1,.81,7.14,7.14,0,0,0,1.51.67,6.77,6.77,0,0,0,2,.28,7,7,0,0,0,2.05-.28,6.3,6.3,0,0,0,1.58-.71,5,5,0,0,0,1.15-.94,5.11,5.11,0,0,0,.65-1v-10A4,4,0,0,0,454.89,334.56Zm-2.75,5.14a4.37,4.37,0,0,1-.91.49,3.06,3.06,0,0,1-1,.18,2.57,2.57,0,0,1-1.33-.33,1.63,1.63,0,0,1-.72-.73v-3.06a1.66,1.66,0,0,1,.71-.73,2.67,2.67,0,0,1,2.58,0,1.66,1.66,0,0,1,.71.73Z" transform="translate(-292.6 -206.12)" style="fill:#1d1d1b"/><path d="M441.9,341.24a4.92,4.92,0,0,0-1.31-1,5.73,5.73,0,0,0,1.15-.84,7.12,7.12,0,0,0,.6-.68v-3.8a7.78,7.78,0,0,0-.54-.63,4.83,4.83,0,0,0-1-.77,6.69,6.69,0,0,0-1.49-.65,6.46,6.46,0,0,0-2-.29,6.71,6.71,0,0,0-2,.28,6.47,6.47,0,0,0-1.49.64,5,5,0,0,0-1,.78,6.26,6.26,0,0,0-.55.64v3.8a3.52,3.52,0,0,0,.6.7,4.66,4.66,0,0,0,1.15.81,5,5,0,0,0-1.3,1,5.23,5.23,0,0,0-.73,1v3.2a4,4,0,0,0,.63.94,5.07,5.07,0,0,0,1.15.94,7.26,7.26,0,0,0,5.73.72,6.88,6.88,0,0,0,1.57-.72,5.07,5.07,0,0,0,1.15-.94,4,4,0,0,0,.64-.94v-3.2A5.08,5.08,0,0,0,441.9,341.24Zm-6.58-5.17a2.16,2.16,0,0,1,.69-.6,2.66,2.66,0,0,1,2.49,0,2,2,0,0,1,.69.6v2.19a2.06,2.06,0,0,1-.69.62,2.66,2.66,0,0,1-2.49,0,2.19,2.19,0,0,1-.69-.62Zm3.93,8.67a1.66,1.66,0,0,1-.71.73,2.47,2.47,0,0,1-1.3.32,2.39,2.39,0,0,1-1.27-.32,1.7,1.7,0,0,1-.72-.73v-2.29a1.71,1.71,0,0,1,.72-.75,2.5,2.5,0,0,1,1.27-.32,2.58,2.58,0,0,1,1.3.32,1.69,1.69,0,0,1,.71.75Z" transform="translate(-292.6 -206.12)" style="fill:#1d1d1b"/><polygon points="129.16 141.93 136.89 141.93 136.89 139.7 134.76 139.7 134.76 126.81 131.93 126.81 129.14 127.75 129.14 129.78 131.39 129.55 131.39 139.7 129.16 139.7 129.16 141.93" style="fill:#1d1d1b"/></svg>