<?xml version="1.0" encoding="UTF-8"?>
<svg id="uuid-8cff89a0-f4b7-4ef6-a505-5ebd098ed6ac" data-name="Layer 1" xmlns="http://www.w3.org/2000/svg" xmlns:xlink="http://www.w3.org/1999/xlink" viewBox="0 0 500 500">
  <defs>
    <style>
      .uuid-5d66a559-fc7d-4fdd-b081-5b57ac325e1c, .uuid-46db441b-9c04-4132-925f-3b4e4ef7c5dd, .uuid-8962e364-bd08-4a30-8860-a4380df8a93b {
        stroke-width: 0px;
      }

      .uuid-5d66a559-fc7d-4fdd-b081-5b57ac325e1c, .uuid-8962e364-bd08-4a30-8860-a4380df8a93b {
        fill: #2b2427;
      }

      .uuid-46db441b-9c04-4132-925f-3b4e4ef7c5dd {
        fill: url(#uuid-ed5c1358-0cfe-4471-9225-f1a2b959e5ae);
      }

      .uuid-8962e364-bd08-4a30-8860-a4380df8a93b {
        fill-rule: evenodd;
      }
    </style>
    <radialGradient id="uuid-ed5c1358-0cfe-4471-9225-f1a2b959e5ae" cx="152.91" cy="50.85" fx="152.91" fy="50.85" r="636.95" gradientUnits="userSpaceOnUse">
      <stop offset="0" stop-color="#fff"/>
      <stop offset="1" stop-color="#dedede"/>
    </radialGradient>
  </defs>
  <rect class="uuid-46db441b-9c04-4132-925f-3b4e4ef7c5dd" x="0" width="500" height="500"/>
  <g>
    <path class="uuid-8962e364-bd08-4a30-8860-a4380df8a93b" d="m117.7,235.27c5.35,69.64,48.63,139.06,132.29,158.26v-91.97c-36.59,0-66.26-29.68-66.26-66.29h-66.03Zm264.6,0c3.34-43.08-7.82-86.38-32.8-117.41-31.24-7.36-64.71-11.38-99.51-11.38v62.5c36.59,0,66.27,29.69,66.27,66.3h66.04Z"/>
    <path class="uuid-5d66a559-fc7d-4fdd-b081-5b57ac325e1c" d="m250,112.95c-16.96,0-33.68,1.11-49.75,2.9-15.84,1.79-31.24,4.47-45.96,7.81-12.72,16.3-21.64,36.16-26.32,57.36-6.92,30.14-5.58,63.17,3.79,94.2,9.59,30.8,27.22,59.37,53.54,80.36,17.62,14.29,39.27,25.23,64.7,31.25,25.43-6.02,47.08-16.96,64.7-31.25,26.33-20.98,43.95-49.55,53.54-80.36,9.37-31.03,10.71-64.06,3.79-94.2-4.68-21.2-13.61-41.07-26.32-57.36-14.72-3.35-30.12-6.02-45.96-7.81-16.07-1.79-32.8-2.9-49.76-2.9h0Zm-51.31-10.05c16.73-1.79,33.91-2.9,51.31-2.9s34.58,1.11,51.31,2.9c16.96,2.01,33.69,4.91,49.53,8.71l2.23.44,1.34,1.79c14.73,18.3,24.77,40.41,30.34,64.29,7.14,32.37,6.02,67.64-4.24,100.89-10.27,33.03-29.23,63.84-57.78,86.61-19.41,15.84-43.06,27.68-71.39,34.15l-1.34.23-1.34-.23c-28.34-6.47-51.98-18.3-71.4-34.15-28.56-22.77-47.51-53.58-57.78-86.61-10.27-33.26-11.38-68.53-4.24-100.89,5.58-23.88,15.62-45.98,30.34-64.29l1.34-1.79,2.24-.44c15.84-3.8,32.57-6.7,49.52-8.71h0Z"/>
    <polygon class="uuid-5d66a559-fc7d-4fdd-b081-5b57ac325e1c" points="160.31 205.57 160.31 152.67 160.31 146.2 166.78 146.2 197.56 146.2 197.56 159.15 173.25 159.15 173.25 171.42 188.65 171.42 188.65 184.37 173.25 184.37 173.25 205.57 160.31 205.57"/>
    <path class="uuid-5d66a559-fc7d-4fdd-b081-5b57ac325e1c" d="m313.81,273.88c7.8,0,14.94,3.35,20.08,8.93l.44.22-9.14,9.15c-.22-.22-.44-.44-.67-.66-2.68-2.91-6.47-4.69-10.71-4.69s-8.04,1.79-10.71,4.69c-2.9,3.12-4.68,7.36-4.68,12.05s1.79,8.93,4.68,12.05c2.68,2.9,6.47,4.69,10.71,4.69s8.03-1.79,10.71-4.69c.22-.22.44-.45.67-.67l9.14,9.15-.44.22c-5.14,5.58-12.27,8.94-20.08,8.94s-14.95-3.35-20.3-8.94c-4.91-5.36-8.04-12.72-8.04-20.75s3.13-15.4,8.04-20.76c5.35-5.58,12.27-8.93,20.3-8.93h0Z"/>
    <path class="uuid-8962e364-bd08-4a30-8860-a4380df8a93b" d="m252.01,206.92l12.71,9.38,12.72,9.15-4.68,14.96-4.9,14.95h-31.46l-4.91-14.95-4.69-14.96,12.5-9.15,12.72-9.38Zm0-31.25c-32.8,0-59.35,26.79-59.35,59.6s26.55,59.6,59.35,59.6,59.57-26.79,59.57-59.6-26.55-59.6-59.57-59.6h0Zm-10.71,6.7c-15.4,3.13-28.56,12.95-36.14,26.34l4.23,12.72-10.71,7.81c-.22,2.01-.45,4.02-.45,6.03,0,14.06,5.36,26.79,14.05,36.39h13.39l4.24,12.72c6.69,3.13,14.27,4.69,22.09,4.69s15.62-1.56,22.31-4.69l4.24-12.72h13.39c8.7-9.6,14.05-22.32,14.05-36.39,0-2.01-.22-4.02-.45-6.03l-10.71-7.81,4.02-12.72c-7.59-13.39-20.53-23.21-36.14-26.34l-10.7,7.81-10.71-7.81Z"/>
  </g>
</svg>