<?xml version="1.0" encoding="UTF-8"?><svg id="Layer_1" xmlns="http://www.w3.org/2000/svg" viewBox="0 0 275.85 336.25"><defs><style>.cls-1{fill:#4cc7e6;}.cls-2{fill:#ef4664;}</style></defs><path class="cls-2" d="M184.66,161.01c-13.29-11.48-30.51-17.79-48.48-17.79s-35.19,6.32-48.48,17.79c-1.28,1.1-2.51,2.25-3.69,3.43l2.38,2.93c1.2-1.22,2.46-2.39,3.77-3.52,12.61-10.89,28.96-16.88,46.03-16.88s33.42,6,46.03,16.88c1.31,1.13,2.57,2.31,3.76,3.52l2.38-2.93c-1.18-1.18-2.41-2.33-3.69-3.43M136.18,174.46c-13.11,0-25,5.86-32.26,14.54l2.3,2.84c6.59-8.2,17.8-13.84,29.96-13.84s23.37,5.64,29.96,13.84l2.3-2.84c-7.26-8.68-19.15-14.54-32.26-14.54M176.09,164.6l-.68-.52c-1.06-.82-1.91-.47-2.53-.07l-15.98,10.34,4.17,2.37,10.19-6.59-1.75,5.92-1.55-1.17-2.67,1.91,3.31,2.48-.77,2.66,3.66,3.35,5.3-18.26c.21-.64.36-1.59-.71-2.42M151.05,157.41l6.73,1.74,1.06-4.1-6.92-1.79c-3.79-.98-6.39.44-7.31,4l-2.82,10.91c-.13.5-.08.98.16,1.38.23.39.62.67,1.12.8l2.57.67,1.82-7.05,7.79,2.02,1.05-4.06-7.79-2.02.3-1.17c.4-1.55.86-1.68,2.24-1.32M129.22,151.4l-11.23,2.28c-.51.11-.92.36-1.17.74-.26.38-.33.86-.23,1.37l2.24,11.02c.36,1.79,1.17,3.08,2.39,3.84.81.5,1.78.75,2.89.75.57,0,1.18-.07,1.82-.2l7.02-1.43-.84-4.16-6.83,1.39c-1.4.28-1.85.13-2.17-1.44l-.24-1.19,7.9-1.6-.83-4.11-7.9,1.6-.6-2.95,8.63-1.75-.84-4.16ZM111.58,174.11c.23-2-.38-3.86-1.86-5.69l-7-8.61-3.47,2.82,6.42,7.91c1.12,1.37,1.43,2.13,1.33,3.26-.08.89-.62,1.8-1.49,2.5-.86.7-1.86,1.04-2.75.94-1.12-.13-1.8-.59-2.92-1.96l-6.43-7.9-3.47,2.82,7,8.61c1.49,1.82,3.18,2.8,5.19,2.98.24.03.47.03.7.04,1.94.02,3.74-.67,5.48-2.08,1.94-1.59,3.01-3.43,3.26-5.63"/><path class="cls-2" d="M7.8,315.07c2.23,0,4.86.5,6.56,1.35.47.24.5.35.29.94l-.76,2.19c-.21.56-.32.56-.79.44-1.82-.56-3.72-.94-5.3-.94-1.7,0-2.35.73-2.35,1.61,0,1.02.82,1.61,3.43,2.67,3.98,1.55,6.83,2.99,6.83,6.79,0,4.1-3.07,6.12-7.65,6.12-2.52,0-5.53-.5-7.76-1.84-.32-.18-.38-.38-.18-.88l.99-2.35c.21-.47.38-.5.82-.32,1.58.62,3.81,1.38,5.8,1.38,2.46,0,3.19-.99,3.19-2.05,0-1.17-.76-1.85-3.25-2.78-4.13-1.58-6.86-3.13-6.86-6.39s2.19-5.95,6.97-5.95M29.09,321.19l-1.23,5.39-1.78,7.73c-.32,1.35-.79,1.61-1.96,1.61h-1.7c-1.11,0-1.67-.03-1.99-1.49l-4.16-18.45c-.12-.53.06-.59.47-.59h3.57c.56,0,.82.06.94.64l1.47,8.47.87,5.24h.21l1.11-5.3,1.58-7.38c.29-1.26.67-1.67,1.93-1.67h1.7c1.18,0,1.44.47,1.7,1.55l1.64,7.71,1.05,4.98h.18l.82-4.98,1.49-8.59c.09-.58.27-.67.76-.67h3.78c.35,0,.53.09.38.59l-4.16,18.39c-.35,1.47-.88,1.55-1.99,1.55h-1.61c-1.14,0-1.67-.18-2.05-1.61l-1.69-7.73-1.15-5.39h-.18ZM47.94,335.92h-3.1c-.47,0-.67-.15-.67-.61v-19.3c0-.47.2-.62.67-.62h3.1c.59,0,.7.12.7.62v19.3c0,.5-.12.61-.7.61M66.39,319.23h-5.3v16.08c0,.5-.12.61-.7.61h-3.13c-.47,0-.67-.15-.67-.61v-16.08h-5.19c-.41,0-.56-.18-.56-.58l.03-2.64c0-.5.12-.62.56-.62h15c.47,0,.59.12.59.62l-.03,2.64c0,.41-.18.58-.58.58M83.91,318.03c0,.88-.53,1.67-1.02,2.29l-9.55,11.6.06.21h10.07c.44,0,.53.12.53.64v2.55c0,.47-.12.61-.53.61h-14.32c-1.11,0-1.7-.44-1.7-1.58v-.7c0-.93.35-1.55.93-2.25l9.9-12.01-.03-.17h-8.9c-.41,0-.56-.18-.56-.62v-2.55c0-.52.09-.64.56-.64h12.8c1.26,0,1.76.38,1.76,1.67v.96ZM100.53,335.92h-8.67c-4.33,0-5.42-2.72-5.42-5.39v-9.73c0-2.78,1.44-5.42,5.39-5.42h8.41c.47,0,.56.15.56.7v2.49c0,.5-.12.64-.56.64h-7.44c-1.53,0-1.91.79-1.91,1.82v2.25h8.41c.47,0,.56.15.56.7v2.29c0,.47-.09.67-.56.67h-8.41v3.34c0,1.35.68,1.76,1.91,1.76h7.73c.5,0,.59.12.59.7v2.49c0,.47-.12.67-.59.67M116.59,326.32c1.32.59,1.73,1.7,2.08,3.07l1.49,5.86c.06.24.03.67-.44.67h-3.08c-.44,0-.99,0-1.17-.59l-1.29-5.18c-.5-1.9-1.43-2.55-3.19-2.55h-2.84v7.7c0,.53-.09.61-.67.61h-3.14c-.47,0-.67-.15-.67-.61v-18.13c0-1.17.35-1.79,1.76-1.79h7.18c4.22,0,6.68,2.35,6.68,5.95,0,1.99-.96,3.9-2.72,4.84l.03.15ZM112.16,319.32h-3.99v4.69h3.9c1.7,0,2.64-.96,2.64-2.37,0-1-.5-2.32-2.55-2.32M122.09,330.54v-14.53c0-.47.2-.62.67-.62h3.1c.59,0,.7.12.7.62v14.21c0,1.49.79,1.87,1.96,1.87h7.44c.44,0,.56.09.56.62v2.6c0,.44-.15.61-.56.61h-8.46c-4.33,0-5.42-2.72-5.42-5.38M150.51,331.65h-6.71l-1.15,3.72c-.12.38-.26.56-.82.56h-3.43c-.41,0-.5-.29-.41-.59l6.09-18.36c.41-1.35.94-1.55,2.14-1.58h1.76c1.32,0,1.82.15,2.29,1.58l6.07,18.36c.09.24.03.59-.38.59h-3.49c-.44,0-.73-.06-.85-.47l-1.12-3.81ZM144.85,328.02h4.6l-1.11-3.72-1.08-4.19h-.18l-1.11,4.19-1.11,3.72ZM162.54,323.18v12.12c0,.5-.12.61-.67.61h-3.08c-.47,0-.67-.15-.67-.61v-17.87c0-1.52.47-2.05,1.9-2.05h1.23c1.18,0,1.53.21,2.2,1.32l4.98,7.58,2.52,3.96h.15v-12.24c0-.47.12-.62.67-.62h3.08c.5,0,.67.18.67.62v17.9c0,1.23-.4,2.01-1.92,2.01h-1.23c-1.17,0-1.52-.21-2.19-1.29l-4.67-7.09-2.81-4.36h-.15ZM179.98,335.92c-1.41,0-1.76-.53-1.76-1.79v-16.92c0-1.23.35-1.82,1.76-1.82h5.47c6.86,0,9.38,4.66,9.38,10.16s-2.14,10.37-9.05,10.37h-5.8ZM184.96,319.29h-2.29v12.72h2.38c4.1,0,5.18-2.7,5.18-6.45s-1.11-6.27-5.27-6.27M218.56,335.92h-11.91c-1.8,0-2.77-.56-2.77-2.84,0-1.49,1.13-3.35,2.89-5.03,1.65-1.61,3.6-2.89,4.94-3.75,2.38-1.49,2.89-2.22,2.89-3.35,0-.97-.7-2.01-2.95-2.01-1.52,0-3.11.49-4.75,1.59-.34.21-.61.25-.85-.09l-1.4-2.13c-.19-.3-.19-.58.12-.79,2.16-1.61,4.63-2.44,7.25-2.44,4.05,0,7.19,1.86,7.19,5.7,0,3.01-2.07,4.81-4.96,6.49-2.01,1.15-4.42,3.01-5.27,5.02h9.6c.46,0,.55.07.55.61v2.42c0,.46-.12.61-.55.61M230.33,336.25c-5.82,0-8.68-4.17-8.68-10.54s2.92-10.63,8.74-10.63,8.68,4.17,8.68,10.57-2.86,10.6-8.74,10.6M230.33,318.82c-3.05,0-4.11,2.86-4.11,6.82s1.06,6.86,4.17,6.86,4.14-2.92,4.14-6.79-1.12-6.89-4.2-6.89M255.77,335.92h-11.91c-1.8,0-2.77-.56-2.77-2.84,0-1.49,1.13-3.35,2.89-5.03,1.65-1.61,3.6-2.89,4.94-3.75,2.38-1.49,2.89-2.22,2.89-3.35,0-.97-.7-2.01-2.95-2.01-1.52,0-3.11.49-4.75,1.59-.34.21-.61.25-.85-.09l-1.4-2.13c-.19-.3-.19-.58.12-.79,2.16-1.61,4.63-2.44,7.25-2.44,4.05,0,7.19,1.86,7.19,5.7,0,3.01-2.07,4.81-4.96,6.49-2.01,1.15-4.42,3.01-5.27,5.02h9.6c.46,0,.55.07.55.61v2.42c0,.46-.12.61-.55.61M267.38,336.24c-2.65,0-5.33-.33-7.64-2.18-.31-.24-.37-.43-.19-.73.37-.52,1.22-1.92,1.56-2.41.27-.39.55-.36,1.03-.03,1.49,1.04,3.32,1.47,4.87,1.47,2.74,0,4.3-1.25,4.3-3.26,0-1.89-1.43-2.9-3.26-2.9s-2.71.49-4.05,1.07c-.49.21-1.19.3-1.77.09l-1.06-.31c-.94-.34-1.16-.82-1.1-1.77l.79-7.61c.15-1.59.94-2.28,2.25-2.28h10.63c.52,0,.67.03.67.67v2.43c0,.52-.18.67-.67.67h-8.89l-.46,3.96c1.34-.45,2.77-.55,3.99-.55,4.3,0,7.46,2.41,7.46,6.4,0,4.82-3.72,7.27-8.47,7.27"/><path class="cls-1" d="M135.1,199.04c-2.43,0-4.79,1.18-6.27,3.1-1.53-1.95-3.86-3.1-6.3-3.1-4.46,0-8.09,3.63-8.09,8.09v13.02h3.55v-13.02c0-2.57,2.03-4.66,4.53-4.66s4.53,2.13,4.53,4.66l-.04,8.47c0,.97.78,1.73,1.78,1.73s1.77-.76,1.77-1.73v-8.47c0-2.57,2.03-4.66,4.53-4.66s4.53,2.13,4.53,4.66v11.5c0,.97.78,1.73,1.78,1.73s1.78-.76,1.78-1.73v-11.5c0-4.46-3.63-8.09-8.09-8.09M110.14,204.71l-3.24,1.57.15.29c.47.93.71,2.04.71,3.22,0,4.12-3.19,7.35-7.27,7.35s-7.32-3.23-7.32-7.35,3.21-7.36,7.32-7.36c2.08,0,3.61.84,4.53,1.55.41.32.85.48,1.28.48,1.01,0,1.69-.89,1.69-1.73,0-.5-.25-1.01-.66-1.37-1.31-1.08-3.88-2.36-6.85-2.36-6.06,0-10.99,4.84-10.99,10.78s4.93,10.78,10.99,10.78,10.95-4.84,10.95-10.78c0-1.65-.39-3.26-1.16-4.8l-.15-.28ZM85.71,199.46l-6.15,15.27-4.72-10.41c-.29-.59-.89-.97-1.53-.97s-1.24.33-1.5.86l-4.67,10.52-6.27-15.27h-3.99l8.74,20.2c.21.51.85.9,1.5.9.57,0,1.28-.29,1.5-.9l4.65-10.73,4.73,10.74c.21.48.89.9,1.46.9.68,0,1.24-.34,1.5-.9l8.74-20.2h-3.99ZM181.04,199.04c-5.86,0-10.28,4.47-10.28,10.41v10.7h3.55v-10.7c0-4.18,2.81-6.99,6.98-6.99,3.82,0,6.81,3.05,6.81,6.94v6.02c0,.96.81,1.77,1.78,1.77s1.78-.81,1.78-1.77v-6.02c0-6.1-4.37-10.37-10.62-10.37M208.45,208.13h-2.39c-2.06,0-3.29-1.07-3.29-2.87s1.79-2.91,4.45-2.91c2.36,0,3.73.74,4.34,1.19.28.21.63.32.97.32.91,0,1.65-.72,1.65-1.61,0-.56-.24-1.05-.67-1.36-1.36-.97-2.86-1.85-6.3-1.85-4.69,0-8.09,2.62-8.09,6.22s2.72,6.17,6.92,6.17h2.39c1.47,0,3.23.48,3.23,2.75,0,1.81-1.8,3.08-4.37,3.08-2.39,0-4.37-.67-6.06-2.04l-.24-.19-2.35,2.51.27.22c2.23,1.81,5.21,2.81,8.38,2.81,4.79,0,8-2.57,8-6.38,0-3.62-2.76-6.05-6.86-6.05M200.06,193.26c0-.92-.76-1.65-1.74-1.65-.67,0-1.24.41-1.54,1.11l-3.5,8.62h3.64l2.99-7.34c.09-.22.15-.51.15-.74M157.18,199.04c-6.06,0-10.99,4.82-10.99,10.74s4.93,10.78,10.99,10.78c3.57,0,6.9-1.89,8.9-5.05l.18-.28-3.06-1.93-.17.31c-1.13,2.14-3.43,3.52-5.86,3.52-4.03,0-7.31-3.3-7.31-7.35s3.28-7.32,7.31-7.32c3.21,0,5.92,2.28,6.7,5.58h-6.91c-.94,0-1.65.73-1.65,1.69s.72,1.65,1.65,1.65h10.78v-1.61c0-5.93-4.75-10.74-10.58-10.74"/><path class="cls-1" d="M135.61,79.54c-2.13,2.52-4.27,6.65-5.04,9.02h-.02c1.18,4.6,1.81,9.4,1.81,14.36,0,10.9-5.21,24.39-12.47,34.63,5.27-1.06,10.71-1.62,16.29-1.62,2.57,0,5.11.13,7.62.36,3.15-6.61,5.15-13.65,5.15-20.46,0-5.72-.9-11.24-2.56-16.41l1.17-1.09c3.93,7.62,6.15,16.27,6.15,25.44,0,4.73-.6,9.31-1.7,13.69,7.19,1.4,13.86,3.68,20.42,6.9.92-27.47-14.99-52.12-36.81-64.82M124.54,83.71l-1.37-3.48c5.09-14.59,12.47-24.37,15.71-28.21-3.66-3.79-5.91-8.93-5.91-14.61,0-7.52,3.95-14.1,9.87-17.83-1.3,2.44-2.04,5.22-2.04,8.17,0,9.61,7.79,17.4,17.4,17.4s17.4-7.79,17.4-17.4-7.52-17.1-16.89-17.37l3.22-10.39-.23.06c-33.05,9.89-56.86,40.92-56.86,76.56,0,22.08,7.78,42.14,17.38,53.2.81-1.67,1.6-3.52,2.08-4.84-1.92-7.4-2.46-15.42-1.1-23.43,4.2-25.61,23.98-44.44,49.3-49.4l-5.57-5.95c-19.73,6.36-35.36,19.64-42.42,37.51"/><path class="cls-2" d="M58.25,86.93c0,20.81,8.11,40.38,22.83,55.1,2.9,2.9,6,5.52,9.25,7.89,2.49-1.68,5.09-3.23,7.76-4.64-19.03-12.44-31.62-33.92-31.62-58.36,0-32.85,22.73-60.36,53.31-67.73,3.15-3.58,6.6-6.91,10.3-9.93-18.52,1.42-35.74,9.29-49.01,22.56-14.72,14.72-22.83,34.29-22.83,55.1M191.28,31.83c-2.84-2.84-5.89-5.41-9.06-7.74.18,1.2.28,2.43.28,3.67,0,2.19-.3,4.32-.85,6.34,14.85,12.78,24.24,31.71,24.24,52.83,0,24.43-12.58,45.92-31.61,58.37.02.01.04.02.07.04.58.3,1.16.62,1.73.93.13.08.26.15.39.22.41.23.82.47,1.23.71.3.17.59.34.88.52.17.1.33.2.5.31,1,.61,2,1.25,2.98,1.91,3.24-2.38,6.33-5.01,9.23-7.9,14.72-14.72,22.83-34.29,22.83-55.1s-8.11-40.38-22.83-55.1"/><path class="cls-1" d="M16.91,250.55c-.4.91-.75,1.86-1.01,2.84-.48,1.85-.72,3.76-.72,5.7,0,1.69.2,3.38.57,5.03.41,1.7,1.03,3.31,1.83,4.83l11.84-6.16c-.59-1.12-.94-2.39-.94-3.74,0-1.12.25-2.19.66-3.16l-12.22-5.33ZM36.56,234.19c5.21,0,10.04,1.61,14.04,4.34l8.47-12.38c-6.41-4.39-14.16-6.96-22.51-6.96-16.37,0-30.42,9.87-36.56,23.98l13.76,5.99c3.82-8.81,12.59-14.97,22.8-14.97M36.56,283.89c-9.58,0-17.89-5.42-22.04-13.37l-13.3,6.93c6.64,12.74,19.98,21.44,35.34,21.44,9.1,0,17.48-3.05,24.18-8.18l-9.11-11.92c-4.18,3.19-9.4,5.09-15.07,5.09M124.96,235.31l-12.05,8.55.75,1.21c2.47,3.68,3.77,7.98,3.77,12.42,0,12.32-10.03,22.35-22.35,22.35s-22.35-10.02-22.35-22.35c0-4.42,1.29-8.71,3.73-12.37l.63-.88-12.17-8.58-.84,1.24c-4.07,6.11-6.22,13.23-6.22,20.59,0,20.53,16.69,37.22,37.22,37.22s37.21-16.69,37.21-37.22c0-7.4-2.17-14.56-6.29-20.71l-1.04-1.48ZM271.92,242.78l-13.16,6.41c1.54,3.16,2.37,6.55,2.45,10.08.32,13.45-10.36,24.65-23.81,24.97-13.45.32-24.65-10.36-24.97-23.81-.32-13.45,10.36-24.65,23.81-24.97,6.28-.15,12.36,2.15,16.98,6.35l10.15-10.56c-7.43-6.89-17.3-10.67-27.48-10.43-21.52.51-38.61,18.44-38.1,39.96.51,21.52,18.44,38.61,39.96,38.1,21.52-.51,38.61-18.44,38.1-39.96-.14-5.65-1.46-11.08-3.93-16.14M138.43,269.28c0,7.49,2.2,14.73,6.37,20.94l.67,1,11.45-8.27-.4-.59c-2.61-3.88-3.99-8.4-3.99-13.08,0-12.96,10.54-23.5,23.5-23.5,4.64,0,9.13,1.36,12.98,3.91l.53.35,5.58-13.14c-5.78-3.41-12.33-5.23-19.09-5.23-20.73,0-37.6,16.87-37.6,37.6"/><path class="cls-1" d="M198.88,151.22h-5.71c-.14,0-.17.06-.17.19v.57c0,.14.03.19.17.19h2.27v7.02c0,.16.07.2.22.2h.67c.15,0,.21-.04.21-.2v-7.02h2.35c.14,0,.16-.05.16-.19v-.57c0-.13-.02-.19-.16-.19M207.2,151.21h-.32c-.33,0-.49.08-.64.47-.13.3-1.44,3.59-1.62,4.03-.06.12-.63,1.59-.68,1.71h-.05c-.06-.13-.63-1.63-.69-1.76l-1.61-3.99c-.15-.39-.3-.47-.64-.47h-.31c-.46,0-.57.22-.57.58v7.39c0,.16.07.2.22.2h.58c.16,0,.22-.04.22-.2v-5.96h.07l.59,1.49c.17.36,1.2,2.88,1.37,3.24.13.36.25.47.61.47h.38c.35,0,.47-.11.6-.47.16-.35,1.19-2.89,1.34-3.25.03-.09.58-1.51.63-1.6h.06v6.08c0,.16.07.2.23.2h.58c.16,0,.22-.04.22-.2v-7.39c0-.36-.11-.58-.57-.58"/></svg>